:version 1.10
:name ASF
:units
  mass 1
  length 1
  angle deg
:documentation
  ASF file generated by Kaydara
:root
  axis xyz
  order  tx ty tz rx ry rz
  position 0 0 0
  orientation 0 0 0
:bonedata
  begin
    id 1
    name RightUpLegDummy
    direction -0.718183 -0.695806 0.00816078
    length 4.904
    axis 0 0 0 xyz
  end
  begin
    id 2
    name RightUpLeg
    direction 3.53373e-006 -0.995788 0.0916898
    length 17.4976
    axis -3.49089 -0.000906625 0.000286804 xyz
    dof rx ry rz
  end
  begin
    id 3
    name RightLeg
    direction 0.00371092 -0.995096 -0.0988419
    length 16.5821
    axis 3.68512 0.0193738 -0.131023 xyz
    dof rx ry rz
  end
  begin
    id 4
    name RightFoot
    direction 0.00079151 -0.46099 0.887405
    length 3.77069
    axis 4.81691e-005 -0.120479 -0.188788 xyz
    dof rx ry rz
  end
  begin
    id 5
    name RightToes
    direction 0 0 0
    length 0
    axis 0 0 0 xyz
    dof rx ry rz
  end
  begin
    id 6
    name SpineDummy
    direction 8.3039e-015 1 4.57515e-016
    length 4.6813
    axis 0 0 0 xyz
  end
  begin
    id 7
    name Spine
    direction -3.15643e-008 0.999988 0.00495137
    length 10.1015
    axis -0.001389 0.000121418 2.40972e-006 xyz
    dof rx ry rz
  end
  begin
    id 8
    name Spine1
    direction 0 0 0
    length 0
    axis -0.001389 0.000121451 1.30017e-006 xyz
    dof rx ry rz
  end
  begin
    id 9
    name HEadDummy
    direction -1.99912e-008 0.999999 0.00127422
    length 3.43865
    axis -0.001389 0.000121451 1.30017e-006 xyz
  end
  begin
    id 10
    name HEad
    direction 0 0 0
    length 0
    axis 0 0 0 xyz
    dof rx ry rz
  end
  begin
    id 11
    name LeftShoulder1Dummy
    direction 0.998891 -0.0402509 -0.0244456
    length 3.5433
    axis -0.001389 0.000121451 1.30017e-006 xyz
  end
  begin
    id 12
    name LeftShoulder1
    direction 0.99951 -0.000327763 0.0313091
    length 4.05031
    axis -0.001389 0.000121451 1.30017e-006 xyz
    dof rx ry rz
  end
  begin
    id 13
    name LeftArm
    direction 0.998561 -0.00100056 -0.0536182
    length 10.3537
    axis -23.1894 0.134784 0.967509 xyz
    dof rx ry rz
  end
  begin
    id 14
    name LeftForeArm
    direction 0.998903 0.00866432 0.046012
    length 8.70632
    axis -9.91835 -0.06569 -0.177794 xyz
    dof rx ry rz
  end
  begin
    id 15
    name LeftHand
    direction 0 0 0
    length 0
    axis 0 0 0 xyz
    dof rx ry rz
  end
  begin
    id 16
    name RightShoulderDummy
    direction -0.998891 -0.0402509 -0.0244414
    length 3.5433
    axis -0.001389 0.000121451 1.30017e-006 xyz
  end
  begin
    id 17
    name RightShoulder
    direction -0.99951 -0.000327807 0.0313133
    length 4.05031
    axis 0.215806 0.000203643 -0.0068026 xyz
    dof rx ry rz
  end
  begin
    id 18
    name RightArm
    direction -0.998573 -0.000999564 -0.053403
    length 10.3947
    axis -23.2009 -0.134239 -0.964101 xyz
    dof rx ry rz
  end
  begin
    id 19
    name RightForeArm
    direction -0.998898 0.00868028 0.0461306
    length 8.68355
    axis -9.92322 0.0658061 0.178868 xyz
    dof rx ry rz
  end
  begin
    id 20
    name RightHand
    direction 0 0 0
    length 0
    axis 0 0 0 xyz
    dof rx ry rz
  end
  begin
    id 21
    name LeftUpLegDummy
    direction 0.718183 -0.695806 0.00816078
    length 4.904
    axis 0 0 0 xyz
  end
  begin
    id 22
    name LeftUpLeg
    direction -6.81752e-006 -0.995793 0.0916337
    length 17.4976
    axis -3.48766 0.00143442 -0.000524262 xyz
    dof rx ry rz
  end
  begin
    id 23
    name LeftLeg
    direction -0.00601358 -0.995091 -0.0987824
    length 16.5821
    axis 3.68178 -0.00654042 -0.000285133 xyz
    dof rx ry rz
  end
  begin
    id 24
    name LeftFoot
    direction -0.00417578 -0.460984 0.887399
    length 3.77069
    axis 1.87233e-006 4.66016e-005 -8.6538e-006 xyz
    dof rx ry rz
  end
  begin
    id 25
    name LeftToes
    direction 0 0 0
    length 0
    axis 0 0 0 xyz
    dof rx ry rz
  end
:hierarchy
  begin
    root RightUpLegDummy SpineDummy LeftUpLegDummy
    RightUpLegDummy RightUpLeg
    RightUpLeg RightLeg
    RightLeg RightFoot
    RightFoot RightToes
    SpineDummy Spine
    Spine Spine1
    Spine1 HEadDummy LeftShoulder1Dummy RightShoulderDummy
    HEadDummy HEad
    LeftShoulder1Dummy LeftShoulder1
    LeftShoulder1 LeftArm
    LeftArm LeftForeArm
    LeftForeArm LeftHand
    RightShoulderDummy RightShoulder
    RightShoulder RightArm
    RightArm RightForeArm
    RightForeArm RightHand
    LeftUpLegDummy LeftUpLeg
    LeftUpLeg LeftLeg
    LeftLeg LeftFoot
    LeftFoot LeftToes
  end

:SAMPLES-PER-SECOND 30
:FULLY-SPECIFIED
:DEGREES
336
root  14.4508 40.6085 9.52489 145.734 86.3731 148.345
RightUpLeg  2.51645 -12.4663 -13.808
RightLeg  6.26115 -10.2824 2.48526
RightFoot  -0.485677 -0.4403 4.57988
RightToes  0.000481921 0.542163 -0.142578
Spine  -1.66153 -0.196978 -2.00562
Spine1  14.5113 -0.976456 2.76177
HEad  11.9818 -2.84336 0.73313
LeftShoulder1  9.31604 -13.2014 -48.686
LeftArm  -10.8317 11.0784 -25.8513
LeftForeArm  175.584 -53.2074 -166.991
LeftHand  -0.25398 0.0180481 5.50724
RightShoulder  4.76574 7.85691 35.9674
RightArm  0.48308 -16.0705 35.4745
RightForeArm  152.623 51.5171 166.055
RightHand  -3.23455 9.63599 -25.0477
LeftUpLeg  2.17268 7.13461 7.40694
LeftLeg  1.54294 12.3156 -3.44781
LeftFoot  2.44712 0.608819 -5.2072
LeftToes  1.06245e-005 4.65869e-005 -8.65517e-006
337
root  14.4355 40.608 9.52985 147.464 86.2202 150.063
RightUpLeg  2.54608 -12.4367 -13.7774
RightLeg  6.22285 -10.501 2.47201
RightFoot  -0.471521 -0.441089 4.59687
RightToes  0.000481921 0.542163 -0.142578
Spine  -1.62202 -0.1802 -1.95231
Spine1  14.5004 -0.972282 2.80011
HEad  11.9724 -3.01436 0.810762
LeftShoulder1  9.31527 -13.1915 -48.7111
LeftArm  -10.7113 10.9957 -25.8429
LeftForeArm  175.604 -53.2257 -166.984
LeftHand  -0.25398 0.0180481 5.50724
RightShoulder  4.66879 7.79568 35.3493
RightArm  0.073605 -15.9602 36.2554
RightForeArm  152.91 51.755 165.966
RightHand  -3.16945 9.5424 -24.7124
LeftUpLeg  2.09875 7.14168 7.41842
LeftLeg  1.5323 12.1271 -3.45884
LeftFoot  2.49559 0.605918 -5.15685
LeftToes  1.06245e-005 4.65869e-005 -8.65517e-006
338
root  14.4175 40.6076 9.53541 148.244 86.1319 150.874
RightUpLeg  2.57154 -12.4411 -13.7734
RightLeg  6.2335 -10.5912 2.46695
RightFoot  -0.460356 -0.438759 4.56439
RightToes  0.000481921 0.542163 -0.142578
Spine  -1.60365 -0.126009 -1.76317
Spine1  14.5753 -0.87539 2.65214
HEad  11.9496 -3.13017 0.840452
LeftShoulder1  9.32272 -13.2251 -48.6518
LeftArm  -10.5757 10.9458 -25.8526
LeftForeArm  175.551 -53.2609 -166.964
LeftHand  -0.25398 0.0180481 5.50724
RightShoulder  4.51736 7.69749 34.3753
RightArm  -0.692238 -15.543 37.7378
RightForeArm  153.185 52.1285 165.811
RightHand  -3.02756 9.13156 -24.2914
LeftUpLeg  2.08808 7.1583 7.43198
LeftLeg  1.51434 12.0115 -3.47914
LeftFoot  2.55048 0.603029 -5.10433
LeftToes  1.06245e-005 4.65869e-005 -8.65517e-006
339
root  14.3936 40.6074 9.54135 148.078 86.0777 150.793
RightUpLeg  2.6099 -12.501 -13.8339
RightLeg  6.30056 -10.5557 2.47758
RightFoot  -0.469468 -0.435421 4.51525
RightToes  0.000481921 0.542163 -0.142578
Spine  -1.52679 -0.0714135 -1.47144
Spine1  14.6482 -0.700484 2.25452
HEad  11.9695 -3.23525 1.02734
LeftShoulder1  9.31948 -13.2933 -48.4364
LeftArm  -10.4679 10.9821 -25.9061
LeftForeArm  175.536 -53.2824 -166.953
LeftHand  -0.25398 0.0180481 5.50724
RightShoulder  4.38056 7.61767 33.4439
RightArm  -1.82798 -14.4039 39.3935
RightForeArm  153.222 52.5054 165.634
RightHand  -2.90488 8.68636 -24.0514
LeftUpLeg  2.14181 7.14991 7.41107
LeftLeg  1.49254 11.9722 -3.48881
LeftFoot  2.60573 0.60209 -5.07964
LeftToes  1.06245e-005 4.65869e-005 -8.65517e-006
340
root  14.3659 40.6072 9.54568 147.295 86.0676 150.099
RightUpLeg  2.62608 -12.5633 -13.9091
RightLeg  6.37797 -10.4637 2.48407
RightFoot  -0.487299 -0.434858 4.50826
RightToes  0.000481921 0.542163 -0.142578
Spine  -1.41411 -0.0292907 -1.15192
Spine1  14.6321 -0.488893 1.70826
HEad  12.0592 -3.40641 1.34898
LeftShoulder1  9.2875 -13.3546 -48.0913
LeftArm  -10.3996 11.0601 -26.0462
LeftForeArm  175.549 -53.3134 -166.94
LeftHand  -0.25398 0.0180481 5.50724
RightShoulder  4.28533 7.57059 32.7539
RightArm  -3.22699 -12.2048 40.5447
RightForeArm  152.967 52.893 165.428
RightHand  -2.86005 8.48867 -24.016
LeftUpLeg  2.20658 7.12146 7.36719
LeftLeg  1.47144 12.0066 -3.48746
LeftFoot  2.65123 0.602771 -5.07741
LeftToes  1.06245e-005 4.65869e-005 -8.65517e-006
341
root  14.3367 40.6069 9.54858 146.112 86.1846 148.95
RightUpLeg  2.54377 -12.5611 -13.895
RightLeg  6.43701 -10.3393 2.46436
RightFoot  -0.477976 -0.435555 4.51995
RightToes  0.000481921 0.542163 -0.142578
Spine  -1.39448 0.0336316 -0.873325
Spine1  14.5844 -0.268597 1.20642
HEad  12.2323 -3.58308 1.61174
LeftShoulder1  9.23096 -13.3833 -47.7126
LeftArm  -10.3556 11.1207 -26.3027
LeftForeArm  175.574 -53.388 -166.908
LeftHand  -0.25398 0.0180481 5.50724
RightShoulder  4.17904 7.49484 32.0528
RightArm  -4.81172 -8.68577 41.0437
RightForeArm  152.394 53.6658 165
RightHand  -2.84108 8.40886 -23.9949
LeftUpLeg  2.22082 7.13115 7.37387
LeftLeg  1.48274 12.1245 -3.49232
LeftFoot  2.66802 0.604721 -5.09193
LeftToes  1.06245e-005 4.65869e-005 -8.65517e-006
342
root  14.3063 40.6063 9.5526 144.489 86.4618 147.32
RightUpLeg  2.37422 -12.4909 -13.7617
RightLeg  6.47194 -10.1618 2.42976
RightFoot  -0.420812 -0.432554 4.47341
RightToes  0.000481921 0.542163 -0.142578
Spine  -1.51651 0.147563 -0.676017
Spine1  14.6026 -0.0528071 0.884896
HEad  12.5244 -3.61262 1.71826
LeftShoulder1  9.19217 -13.4082 -47.4377
LeftArm  -10.3112 11.1678 -26.5524
LeftForeArm  175.642 -53.4834 -166.869
LeftHand  -0.25398 0.0180481 5.50724
RightShoulder  3.98747 7.30668 30.9322
RightArm  -6.48532 -3.77787 41.3137
RightForeArm  151.035 55.2721 164.044
RightHand  -2.84279 8.34577 -24.1142
LeftUpLeg  2.19779 7.21505 7.47694
LeftLeg  1.54452 12.3134 -3.5099
LeftFoot  2.64839 0.607956 -5.12323
LeftToes  1.06245e-005 4.65869e-005 -8.65517e-006
343
root  14.2763 40.6059 9.55912 142.574 86.7897 145.424
RightUpLeg  2.24048 -12.4057 -13.5976
RightLeg  6.46841 -9.95712 2.41677
RightFoot  -0.334109 -0.426201 4.37407
RightToes  0.000481921 0.542163 -0.142578
Spine  -1.66996 0.29989 -0.51547
Spine1  14.6451 0.168432 0.675488
HEad  12.9358 -3.58963 1.7809
LeftShoulder1  9.21882 -13.4924 -47.338
LeftArm  -10.2158 11.2133 -26.5933
LeftForeArm  175.705 -53.569 -166.834
LeftHand  -0.25398 0.0180481 5.50724
RightShoulder  3.69147 6.98173 29.2235
RightArm  -8.0552 2.1188 41.7826
RightForeArm  148.105 57.7452 162.346
RightHand  -2.99951 8.6796 -24.8026
LeftUpLeg  2.20913 7.32949 7.6266
LeftLeg  1.61608 12.5131 -3.52599
LeftFoot  2.61964 0.610805 -5.145
LeftToes  1.06245e-005 4.65869e-005 -8.65517e-006
